# xmcd CD database file
#
# Track frame offsets:
#	182
#	18030
#	36330
#	54107
#	73157
#	93785
#	110287
#	128130
#	148570
#	162530
#
# Disc length: 2498 seconds
#
# Revision: 3
# Processed by: cddbd v1.5.2PL0 Copyright (c) Steve Scherf et al.
# Submitted via: CDex 1.60beta1
#
DISCID=7d09c00a
DTITLE=Gillian Welch - Revival
DYEAR=1996
DGENRE=Country
TTITLE0=Orphan Girl
TTITLE1=Annabelle
TTITLE2=Pass You By
TTITLE3=Barroom Girls
TTITLE4=One More Dollar
TTITLE5=By The Mark
TTITLE6=Paper Wings
TTITLE7=Tear My Stillhouse Down
TTITLE8=Acony Bell
TTITLE9=Only One And Only
EXTD=YEAR: 1996
EXTT0=
EXTT1=
EXTT2=
EXTT3=
EXTT4=
EXTT5=
EXTT6=
EXTT7=
EXTT8=
EXTT9=
PLAYORDER=
